<?xml version="1.0" standalone="no"?><!DOCTYPE svg PUBLIC "-//W3C//DTD SVG 1.1//EN" "http://www.w3.org/Graphics/SVG/1.1/DTD/svg11.dtd"><svg t="1501577273620" class="icon" style="" viewBox="0 0 1025 1024" version="1.1" xmlns="http://www.w3.org/2000/svg" p-id="4930" xmlns:xlink="http://www.w3.org/1999/xlink" width="200.1953125" height="200"><defs><style type="text/css"></style></defs><path d="M977.762 422.232v-317.207c0-40.255-32.753-73.025-73.009-73.025h-323.797c-20.323 0-51.092 0-71.17 20.078l-474.322 474.353c-11.39 11.374-17.687 26.539-17.687 42.631 0 16.141 6.264 31.289 17.654 42.696l362.619 362.539c11.374 11.423 26.506 17.703 42.631 17.703s31.289-6.28 42.663-17.671l474.322-474.337c20.339-20.306 20.209-49.513 20.095-77.76zM733.71 357.407c-44.941 0-81.356-36.398-81.356-81.356 0-44.925 36.415-81.339 81.356-81.339s81.356 36.415 81.356 81.339c0 44.957-36.415 81.356-81.356 81.356z" fill="#0D47A1" p-id="4931"></path></svg>