<?xml version="1.0" standalone="no"?><!DOCTYPE svg PUBLIC "-//W3C//DTD SVG 1.1//EN" "http://www.w3.org/Graphics/SVG/1.1/DTD/svg11.dtd"><svg t="1501489822343" class="icon" style="" viewBox="0 0 1024 1024" version="1.1" xmlns="http://www.w3.org/2000/svg" p-id="6815" xmlns:xlink="http://www.w3.org/1999/xlink" width="200" height="200"><defs><style type="text/css"></style></defs><path d="M789.609 656.574h-637.845c-25.858 0-47.015-21.157-47.015-47.015v-297.763c0-25.858 21.157-47.015 47.015-47.015h637.845c25.858 0 47.015 21.157 47.015 47.015v297.763c0 25.858-21.157 47.015-47.015 47.015zM789.609 609.557v0zM151.759 311.791v297.763h637.845v-297.763h-637.845z" fill="#dbdbdb" p-id="6816"></path><path d="M200.345 356.457h86.197v207.652h-86.197zM313.968 356.457h86.197v207.652h-86.197zM427.585 356.457h86.197v207.652h-86.197zM894.607 357.238h-29.78v206.085h29.78c21.94 0 39.181-18.023 39.181-39.181v-127.727c0-21.157-17.239-39.181-39.181-39.181z" fill="#dbdbdb" p-id="6817"></path></svg>