<?xml version="1.0" standalone="no"?><!DOCTYPE svg PUBLIC "-//W3C//DTD SVG 1.1//EN" "http://www.w3.org/Graphics/SVG/1.1/DTD/svg11.dtd"><svg t="1501584827226" class="icon" style="" viewBox="0 0 1024 1024" version="1.1" xmlns="http://www.w3.org/2000/svg" p-id="14215" xmlns:xlink="http://www.w3.org/1999/xlink" width="200" height="200"><defs><style type="text/css"></style></defs><path d="M512 0C229.701818 0 0 229.655273 0 512c0 282.298182 229.701818 512 512 512s512-229.748364 512-512c0-282.344727-229.701818-512-512-512z m0 952.552727c-242.967273 0-440.552727-197.632-440.552727-440.552727 0-242.967273 197.585455-440.552727 440.552727-440.552727S952.552727 269.032727 952.552727 512c0 242.920727-197.585455 440.552727-440.552727 440.552727z" fill="#707070" p-id="14216"></path><path d="M750.126545 476.253091h-202.426181V273.826909a35.746909 35.746909 0 0 0-71.493819 0v202.426182H273.873455a35.746909 35.746909 0 0 0 0 71.493818h202.426181v202.379636a35.746909 35.746909 0 0 0 71.493819 0v-202.379636h202.426181a35.746909 35.746909 0 1 0-0.093091-71.493818z" fill="#707070" p-id="14217"></path></svg>