<?xml version="1.0" standalone="no"?><!DOCTYPE svg PUBLIC "-//W3C//DTD SVG 1.1//EN" "http://www.w3.org/Graphics/SVG/1.1/DTD/svg11.dtd"><svg t="1501582754464" class="icon" style="" viewBox="0 0 1024 1024" version="1.1" xmlns="http://www.w3.org/2000/svg" p-id="9177" xmlns:xlink="http://www.w3.org/1999/xlink" width="200" height="200"><defs><style type="text/css"></style></defs><path d="M874.795 735.537c-58.255-28.453-142.651-96.733-268.659-119.492 30.908-36.408 55.865-93.314 82.018-159.319 13.083-39.839 10.705-72.842 10.705-119.505 0-35.277 7.133-89.908-2.378-121.767-27.335-103.582-97.478-132.035-179.496-132.035-83.213 0-153.343 28.453-180.691 132.022-8.328 31.859-2.378 87.634-2.378 121.767 0 46.663-2.378 79.666 13.070 119.505 24.957 66.005 48.733 124.042 80.835 159.319-124.813 23.904-210.403 92.183-266.281 119.492-118.876 54.631-118.876 114.943-118.876 114.943v22.76c0 39.839 43.978 79.679 86.786 79.679h776.263c54.683 0 87.968-43.245 87.968-83.084v-19.354c-0.013 0.013-1.208-60.299-118.888-114.93z" p-id="9178" fill="#e6e6e6"></path></svg>