<?xml version="1.0" standalone="no"?><!DOCTYPE svg PUBLIC "-//W3C//DTD SVG 1.1//EN" "http://www.w3.org/Graphics/SVG/1.1/DTD/svg11.dtd"><svg t="1501497201626" class="icon" style="" viewBox="0 0 1024 1024" version="1.1" xmlns="http://www.w3.org/2000/svg" p-id="9315" xmlns:xlink="http://www.w3.org/1999/xlink" width="200" height="200"><defs><style type="text/css"></style></defs><path d="M884.39179 476.6883 547.791101 476.6883 547.791101 140.08761c0-19.421483-15.890217-35.3117-35.3117-35.3117l0 0c-19.421483 0-35.3117 15.890217-35.3117 35.3117l0 336.59973L140.567011 476.687341c-19.421483 0-35.3117 15.890217-35.3117 35.3117l0 0c0 19.421483 15.890217 35.3117 35.3117 35.3117l336.59973 0 0 336.59973c0 19.421483 15.890217 35.3117 35.3117 35.3117l0 0c19.421483 0 35.3117-15.890217 35.3117-35.3117L547.790142 547.3117l336.59973 0c19.421483 0 35.3117-15.890217 35.3117-35.3117l0 0C919.703491 492.578517 903.812315 476.6883 884.39179 476.6883z" p-id="9316" fill="#dbdbdb"></path></svg>